<mxfile host="Electron" agent="Mozilla/5.0 (Windows NT 10.0; Win64; x64) AppleWebKit/537.36 (KHTML, like Gecko) draw.io/26.2.2 Chrome/134.0.6998.178 Electron/35.1.2 Safari/537.36" version="26.2.2">
  <diagram id="-S4G8XShlhvuS1L39Igh" name="ERD JobVacanciesApp">
    <mxGraphModel dx="1556" dy="914" grid="1" gridSize="10" guides="1" tooltips="1" connect="1" arrows="1" fold="1" page="1" pageScale="1" pageWidth="1169" pageHeight="827" math="0" shadow="0">
      <root>
        <mxCell id="0" />
        <mxCell id="1" parent="0" />
        <mxCell id="6swf2HXfbsQknAuUjtrE-1" value="auth_user_role" style="swimlane;fontStyle=0;childLayout=stackLayout;horizontal=1;startSize=26;fillColor=#ffe6cc;horizontalStack=0;resizeParent=1;resizeParentMax=0;resizeLast=0;collapsible=1;marginBottom=0;swimlaneFillColor=#ffffff;align=center;strokeWidth=1;fontSize=13;strokeColor=#d79b00;" parent="1" vertex="1">
          <mxGeometry x="580.5" y="247" width="130" height="150" as="geometry" />
        </mxCell>
        <mxCell id="6swf2HXfbsQknAuUjtrE-2" value="id" style="shape=partialRectangle;top=0;left=0;right=0;bottom=1;align=left;verticalAlign=middle;fillColor=none;spacingLeft=34;spacingRight=4;overflow=hidden;rotatable=0;points=[[0,0.5],[1,0.5]];portConstraint=eastwest;dropTarget=0;fontStyle=5;" parent="6swf2HXfbsQknAuUjtrE-1" vertex="1">
          <mxGeometry y="26" width="130" height="30" as="geometry" />
        </mxCell>
        <mxCell id="6swf2HXfbsQknAuUjtrE-3" value="PK" style="shape=partialRectangle;top=0;left=0;bottom=0;fillColor=none;align=left;verticalAlign=middle;spacingLeft=4;spacingRight=4;overflow=hidden;rotatable=0;points=[];portConstraint=eastwest;part=1;fontStyle=1" parent="6swf2HXfbsQknAuUjtrE-2" vertex="1" connectable="0">
          <mxGeometry width="30" height="30" as="geometry" />
        </mxCell>
        <mxCell id="6swf2HXfbsQknAuUjtrE-4" value="auth_user_id&#xa;auth_role_id&#xa;-----------------------&#xa;auth_user_id&#xa;-----------------------&#xa;auth_role_id&#xa;" style="shape=partialRectangle;top=0;left=0;right=0;bottom=0;align=left;verticalAlign=top;fillColor=none;spacingLeft=34;spacingRight=4;overflow=hidden;rotatable=0;points=[[0,0.5],[1,0.5]];portConstraint=eastwest;dropTarget=0;fontStyle=0" parent="6swf2HXfbsQknAuUjtrE-1" vertex="1">
          <mxGeometry y="56" width="130" height="94" as="geometry" />
        </mxCell>
        <mxCell id="6swf2HXfbsQknAuUjtrE-5" value="UN&#xa;Â &#xa;-----&#xa;FK&#xa;-----&#xa;FK&#xa;" style="shape=partialRectangle;top=0;left=0;bottom=0;fillColor=none;align=left;verticalAlign=top;spacingLeft=4;spacingRight=4;overflow=hidden;rotatable=0;points=[];portConstraint=eastwest;part=1;fontStyle=0" parent="6swf2HXfbsQknAuUjtrE-4" vertex="1" connectable="0">
          <mxGeometry width="30" height="94" as="geometry" />
        </mxCell>
        <mxCell id="6swf2HXfbsQknAuUjtrE-6" value="auth_user" style="swimlane;fontStyle=0;childLayout=stackLayout;horizontal=1;startSize=26;fillColor=#FFE6CC;horizontalStack=0;resizeParent=1;resizeParentMax=0;resizeLast=0;collapsible=1;marginBottom=0;swimlaneFillColor=#ffffff;align=center;strokeWidth=1;fontSize=13;strokeColor=#d79b00;" parent="1" vertex="1">
          <mxGeometry x="310" y="160" width="192" height="220" as="geometry" />
        </mxCell>
        <mxCell id="6swf2HXfbsQknAuUjtrE-7" value="id" style="shape=partialRectangle;top=0;left=0;right=0;bottom=1;align=left;verticalAlign=middle;fillColor=none;spacingLeft=34;spacingRight=4;overflow=hidden;rotatable=0;points=[[0,0.5],[1,0.5]];portConstraint=eastwest;dropTarget=0;fontStyle=5;" parent="6swf2HXfbsQknAuUjtrE-6" vertex="1">
          <mxGeometry y="26" width="192" height="30" as="geometry" />
        </mxCell>
        <mxCell id="6swf2HXfbsQknAuUjtrE-8" value="PK" style="shape=partialRectangle;top=0;left=0;bottom=0;fillColor=none;align=left;verticalAlign=middle;spacingLeft=4;spacingRight=4;overflow=hidden;rotatable=0;points=[];portConstraint=eastwest;part=1;fontStyle=1" parent="6swf2HXfbsQknAuUjtrE-7" vertex="1" connectable="0">
          <mxGeometry width="30" height="30" as="geometry" />
        </mxCell>
        <mxCell id="6swf2HXfbsQknAuUjtrE-9" value="email&#xa;--------------------------------------&#xa;pdf_document_page_format&#xa;--------------------------------------&#xa;language&#xa;--------------------------------------&#xa;color_mode&#xa;--------------------------------------&#xa;initial_currency&#xa;--------------------------------------&#xa;initial_table_page_size" style="shape=partialRectangle;top=0;left=0;right=0;bottom=0;align=left;verticalAlign=top;fillColor=none;spacingLeft=34;spacingRight=4;overflow=hidden;rotatable=0;points=[[0,0.5],[1,0.5]];portConstraint=eastwest;dropTarget=0;" parent="6swf2HXfbsQknAuUjtrE-6" vertex="1">
          <mxGeometry y="56" width="192" height="164" as="geometry" />
        </mxCell>
        <mxCell id="6swf2HXfbsQknAuUjtrE-10" value="UN&#xa;-----&#xa;FK&#xa;-----&#xa;FK&#xa;-----&#xa;FK&#xa;-----&#xa;FK&#xa;-----&#xa;FK" style="shape=partialRectangle;top=0;left=0;bottom=0;fillColor=none;align=left;verticalAlign=top;spacingLeft=4;spacingRight=4;overflow=hidden;rotatable=0;points=[];portConstraint=eastwest;part=1;" parent="6swf2HXfbsQknAuUjtrE-9" vertex="1" connectable="0">
          <mxGeometry width="30" height="164.00000000000003" as="geometry" />
        </mxCell>
        <mxCell id="6swf2HXfbsQknAuUjtrE-11" value="auth_role" style="swimlane;fontStyle=0;childLayout=stackLayout;horizontal=1;startSize=26;fillColor=#ffe6cc;horizontalStack=0;resizeParent=1;resizeParentMax=0;resizeLast=0;collapsible=1;marginBottom=0;swimlaneFillColor=#ffffff;align=center;strokeWidth=1;fontSize=13;strokeColor=#d79b00;" parent="1" vertex="1">
          <mxGeometry x="580.5" y="411" width="130" height="140" as="geometry" />
        </mxCell>
        <mxCell id="6swf2HXfbsQknAuUjtrE-12" value="id" style="shape=partialRectangle;top=0;left=0;right=0;bottom=1;align=left;verticalAlign=middle;fillColor=none;spacingLeft=34;spacingRight=4;overflow=hidden;rotatable=0;points=[[0,0.5],[1,0.5]];portConstraint=eastwest;dropTarget=0;fontStyle=5;" parent="6swf2HXfbsQknAuUjtrE-11" vertex="1">
          <mxGeometry y="26" width="130" height="30" as="geometry" />
        </mxCell>
        <mxCell id="6swf2HXfbsQknAuUjtrE-13" value="PK" style="shape=partialRectangle;top=0;left=0;bottom=0;fillColor=none;align=left;verticalAlign=middle;spacingLeft=4;spacingRight=4;overflow=hidden;rotatable=0;points=[];portConstraint=eastwest;part=1;" parent="6swf2HXfbsQknAuUjtrE-12" vertex="1" connectable="0">
          <mxGeometry width="30" height="30" as="geometry" />
        </mxCell>
        <mxCell id="6swf2HXfbsQknAuUjtrE-14" value="name&#xa;-----------------------&#xa;message_name&#xa;-----------------------&#xa;priority&#xa;&#xa;" style="shape=partialRectangle;top=0;left=0;right=0;bottom=0;align=left;verticalAlign=top;fillColor=none;spacingLeft=34;spacingRight=4;overflow=hidden;rotatable=0;points=[[0,0.5],[1,0.5]];portConstraint=eastwest;dropTarget=0;" parent="6swf2HXfbsQknAuUjtrE-11" vertex="1">
          <mxGeometry y="56" width="130" height="84" as="geometry" />
        </mxCell>
        <mxCell id="6swf2HXfbsQknAuUjtrE-15" value="UN&#xa;-----&#xa;UN&#xa;-----&#xa;UN&#xa;&#xa;&#xa;&#xa;&#xa;" style="shape=partialRectangle;top=0;left=0;bottom=0;fillColor=none;align=left;verticalAlign=top;spacingLeft=4;spacingRight=4;overflow=hidden;rotatable=0;points=[];portConstraint=eastwest;part=1;" parent="6swf2HXfbsQknAuUjtrE-14" vertex="1" connectable="0">
          <mxGeometry width="30" height="84" as="geometry" />
        </mxCell>
        <mxCell id="6swf2HXfbsQknAuUjtrE-16" style="edgeStyle=orthogonalEdgeStyle;rounded=0;html=1;exitX=0.5;exitY=0;entryX=1;entryY=0.5;startArrow=none;startFill=0;endArrow=none;endFill=0;jettySize=auto;orthogonalLoop=1;strokeColor=none;fontSize=13;dashed=1;" parent="1" target="6swf2HXfbsQknAuUjtrE-7" edge="1">
          <mxGeometry relative="1" as="geometry">
            <mxPoint x="517" y="239" as="sourcePoint" />
          </mxGeometry>
        </mxCell>
        <mxCell id="6swf2HXfbsQknAuUjtrE-17" value="" style="edgeStyle=none;rounded=0;html=1;startArrow=ERzeroToMany;startFill=1;endArrow=ERzeroToOne;endFill=1;jettySize=auto;orthogonalLoop=1;fontSize=10;strokeColor=#000066;entryX=1;entryY=0.5;entryDx=0;entryDy=0;" parent="1" target="6swf2HXfbsQknAuUjtrE-7" edge="1">
          <mxGeometry relative="1" as="geometry">
            <mxPoint x="580" y="359" as="sourcePoint" />
            <mxPoint x="315" y="305" as="targetPoint" />
            <Array as="points">
              <mxPoint x="559" y="359" />
              <mxPoint x="559" y="220" />
              <mxPoint x="530" y="220" />
              <mxPoint x="530" y="201" />
            </Array>
          </mxGeometry>
        </mxCell>
        <mxCell id="6swf2HXfbsQknAuUjtrE-18" value="" style="edgeStyle=none;rounded=0;html=1;startArrow=ERzeroToMany;startFill=1;endArrow=ERzeroToOne;endFill=1;jettySize=auto;orthogonalLoop=1;fontSize=10;strokeColor=#000066;entryX=0;entryY=0.5;entryDx=0;entryDy=0;exitX=0;exitY=0.87;exitDx=0;exitDy=0;exitPerimeter=0;" parent="1" source="6swf2HXfbsQknAuUjtrE-4" target="6swf2HXfbsQknAuUjtrE-12" edge="1">
          <mxGeometry relative="1" as="geometry">
            <mxPoint x="142" y="95" as="sourcePoint" />
            <mxPoint x="152" y="255" as="targetPoint" />
            <Array as="points">
              <mxPoint x="560" y="385" />
              <mxPoint x="560" y="452" />
            </Array>
          </mxGeometry>
        </mxCell>
        <mxCell id="6swf2HXfbsQknAuUjtrE-19" value="auth_user_curriculum" style="swimlane;fontStyle=0;childLayout=stackLayout;horizontal=1;startSize=26;fillColor=#FFE6CC;horizontalStack=0;resizeParent=1;resizeParentMax=0;resizeLast=0;collapsible=1;marginBottom=0;swimlaneFillColor=#ffffff;align=center;strokeWidth=1;fontSize=13;strokeColor=#d79b00;" parent="1" vertex="1">
          <mxGeometry x="332" y="30" width="170" height="120" as="geometry" />
        </mxCell>
        <mxCell id="6swf2HXfbsQknAuUjtrE-20" value="id" style="shape=partialRectangle;top=0;left=0;right=0;bottom=1;align=left;verticalAlign=middle;fillColor=none;spacingLeft=34;spacingRight=4;overflow=hidden;rotatable=0;points=[[0,0.5],[1,0.5]];portConstraint=eastwest;dropTarget=0;fontStyle=5;" parent="6swf2HXfbsQknAuUjtrE-19" vertex="1">
          <mxGeometry y="26" width="170" height="30" as="geometry" />
        </mxCell>
        <mxCell id="6swf2HXfbsQknAuUjtrE-21" value="PK" style="shape=partialRectangle;top=0;left=0;bottom=0;fillColor=none;align=left;verticalAlign=middle;spacingLeft=4;spacingRight=4;overflow=hidden;rotatable=0;points=[];portConstraint=eastwest;part=1;fontStyle=1" parent="6swf2HXfbsQknAuUjtrE-20" vertex="1" connectable="0">
          <mxGeometry width="30" height="30" as="geometry" />
        </mxCell>
        <mxCell id="6swf2HXfbsQknAuUjtrE-22" value="auth_user_id&#xa;file_name&#xa;---------------------------------&#xa;auth_user_id" style="shape=partialRectangle;top=0;left=0;right=0;bottom=0;align=left;verticalAlign=top;fillColor=none;spacingLeft=34;spacingRight=4;overflow=hidden;rotatable=0;points=[[0,0.5],[1,0.5]];portConstraint=eastwest;dropTarget=0;" parent="6swf2HXfbsQknAuUjtrE-19" vertex="1">
          <mxGeometry y="56" width="170" height="64" as="geometry" />
        </mxCell>
        <mxCell id="6swf2HXfbsQknAuUjtrE-23" value="UN&#xa;Â &#xa;-----&#xa;FK&#xa;&#xa;&#xa;" style="shape=partialRectangle;top=0;left=0;bottom=0;fillColor=none;align=left;verticalAlign=top;spacingLeft=4;spacingRight=4;overflow=hidden;rotatable=0;points=[];portConstraint=eastwest;part=1;" parent="6swf2HXfbsQknAuUjtrE-22" vertex="1" connectable="0">
          <mxGeometry width="30" height="64.00000000000003" as="geometry" />
        </mxCell>
        <mxCell id="6swf2HXfbsQknAuUjtrE-24" value="" style="edgeStyle=none;rounded=0;html=1;startArrow=ERzeroToMany;startFill=1;endArrow=ERzeroToOne;endFill=1;jettySize=auto;orthogonalLoop=1;fontSize=10;strokeColor=#000066;entryX=0;entryY=0.5;entryDx=0;entryDy=0;exitX=-0.003;exitY=0.838;exitDx=0;exitDy=0;exitPerimeter=0;" parent="1" source="6swf2HXfbsQknAuUjtrE-22" target="6swf2HXfbsQknAuUjtrE-7" edge="1">
          <mxGeometry relative="1" as="geometry">
            <mxPoint x="345" y="145" as="sourcePoint" />
            <mxPoint x="335" y="159.99799999999993" as="targetPoint" />
            <Array as="points">
              <mxPoint x="300" y="140" />
              <mxPoint x="300" y="201" />
            </Array>
          </mxGeometry>
        </mxCell>
        <mxCell id="6swf2HXfbsQknAuUjtrE-25" value="auth_user_signup_confirmation" style="swimlane;fontStyle=0;childLayout=stackLayout;horizontal=1;startSize=26;fillColor=#FFE6CC;horizontalStack=0;resizeParent=1;resizeParentMax=0;resizeLast=0;collapsible=1;marginBottom=0;swimlaneFillColor=#ffffff;align=center;strokeWidth=1;fontSize=13;strokeColor=#d79b00;" parent="1" vertex="1">
          <mxGeometry x="308" y="390" width="194" height="120" as="geometry" />
        </mxCell>
        <mxCell id="6swf2HXfbsQknAuUjtrE-26" value="id" style="shape=partialRectangle;top=0;left=0;right=0;bottom=1;align=left;verticalAlign=middle;fillColor=none;spacingLeft=34;spacingRight=4;overflow=hidden;rotatable=0;points=[[0,0.5],[1,0.5]];portConstraint=eastwest;dropTarget=0;fontStyle=5;" parent="6swf2HXfbsQknAuUjtrE-25" vertex="1">
          <mxGeometry y="26" width="194" height="30" as="geometry" />
        </mxCell>
        <mxCell id="6swf2HXfbsQknAuUjtrE-27" value="PK" style="shape=partialRectangle;top=0;left=0;bottom=0;fillColor=none;align=left;verticalAlign=middle;spacingLeft=4;spacingRight=4;overflow=hidden;rotatable=0;points=[];portConstraint=eastwest;part=1;fontStyle=1" parent="6swf2HXfbsQknAuUjtrE-26" vertex="1" connectable="0">
          <mxGeometry width="30" height="30" as="geometry" />
        </mxCell>
        <mxCell id="6swf2HXfbsQknAuUjtrE-28" value="email&#xa;---------------------------------------&#xa;email&#xa;uuid" style="shape=partialRectangle;top=0;left=0;right=0;bottom=0;align=left;verticalAlign=top;fillColor=none;spacingLeft=34;spacingRight=4;overflow=hidden;rotatable=0;points=[[0,0.5],[1,0.5]];portConstraint=eastwest;dropTarget=0;" parent="6swf2HXfbsQknAuUjtrE-25" vertex="1">
          <mxGeometry y="56" width="194" height="64" as="geometry" />
        </mxCell>
        <mxCell id="6swf2HXfbsQknAuUjtrE-29" value="UN&#xa;-----&#xa;UN&#xa;Â &#xa;&#xa;&#xa;" style="shape=partialRectangle;top=0;left=0;bottom=0;fillColor=none;align=left;verticalAlign=top;spacingLeft=4;spacingRight=4;overflow=hidden;rotatable=0;points=[];portConstraint=eastwest;part=1;" parent="6swf2HXfbsQknAuUjtrE-28" vertex="1" connectable="0">
          <mxGeometry width="30" height="64.00000000000003" as="geometry" />
        </mxCell>
        <mxCell id="6swf2HXfbsQknAuUjtrE-30" value="auth_user_credentials" style="swimlane;fontStyle=0;childLayout=stackLayout;horizontal=1;startSize=26;fillColor=#FFE6CC;horizontalStack=0;resizeParent=1;resizeParentMax=0;resizeLast=0;collapsible=1;marginBottom=0;swimlaneFillColor=#ffffff;align=center;strokeWidth=1;fontSize=13;strokeColor=#d79b00;" parent="1" vertex="1">
          <mxGeometry x="332" y="520" width="170" height="110" as="geometry" />
        </mxCell>
        <mxCell id="6swf2HXfbsQknAuUjtrE-31" value="id" style="shape=partialRectangle;top=0;left=0;right=0;bottom=1;align=left;verticalAlign=middle;fillColor=none;spacingLeft=34;spacingRight=4;overflow=hidden;rotatable=0;points=[[0,0.5],[1,0.5]];portConstraint=eastwest;dropTarget=0;fontStyle=5;" parent="6swf2HXfbsQknAuUjtrE-30" vertex="1">
          <mxGeometry y="26" width="170" height="30" as="geometry" />
        </mxCell>
        <mxCell id="6swf2HXfbsQknAuUjtrE-32" value="PK" style="shape=partialRectangle;top=0;left=0;bottom=0;fillColor=none;align=left;verticalAlign=middle;spacingLeft=4;spacingRight=4;overflow=hidden;rotatable=0;points=[];portConstraint=eastwest;part=1;fontStyle=1" parent="6swf2HXfbsQknAuUjtrE-31" vertex="1" connectable="0">
          <mxGeometry width="30" height="30" as="geometry" />
        </mxCell>
        <mxCell id="6swf2HXfbsQknAuUjtrE-33" value="email&#xa;---------------------------------&#xa;encrypted_password" style="shape=partialRectangle;top=0;left=0;right=0;bottom=0;align=left;verticalAlign=top;fillColor=none;spacingLeft=34;spacingRight=4;overflow=hidden;rotatable=0;points=[[0,0.5],[1,0.5]];portConstraint=eastwest;dropTarget=0;" parent="6swf2HXfbsQknAuUjtrE-30" vertex="1">
          <mxGeometry y="56" width="170" height="54" as="geometry" />
        </mxCell>
        <mxCell id="6swf2HXfbsQknAuUjtrE-34" value="UN&#xa;-----&#xa;&#xa;&#xa;&#xa;" style="shape=partialRectangle;top=0;left=0;bottom=0;fillColor=none;align=left;verticalAlign=top;spacingLeft=4;spacingRight=4;overflow=hidden;rotatable=0;points=[];portConstraint=eastwest;part=1;" parent="6swf2HXfbsQknAuUjtrE-33" vertex="1" connectable="0">
          <mxGeometry width="30" height="54.00000000000002" as="geometry" />
        </mxCell>
        <mxCell id="6swf2HXfbsQknAuUjtrE-35" value="" style="fontSize=12;html=1;endArrow=ERzeroToOne;endFill=1;rounded=0;strokeColor=#009900;exitX=0.999;exitY=0.218;exitDx=0;exitDy=0;exitPerimeter=0;entryX=1;entryY=0.086;entryDx=0;entryDy=0;entryPerimeter=0;" parent="1" source="6swf2HXfbsQknAuUjtrE-28" target="6swf2HXfbsQknAuUjtrE-9" edge="1">
          <mxGeometry width="100" height="100" relative="1" as="geometry">
            <mxPoint x="504" y="415" as="sourcePoint" />
            <mxPoint x="502" y="240" as="targetPoint" />
            <Array as="points">
              <mxPoint x="520" y="460" />
              <mxPoint x="520" y="230" />
            </Array>
          </mxGeometry>
        </mxCell>
        <mxCell id="6swf2HXfbsQknAuUjtrE-36" value="" style="fontSize=12;html=1;endArrow=ERzeroToOne;endFill=1;rounded=0;strokeColor=#009900;exitX=1;exitY=0.262;exitDx=0;exitDy=0;exitPerimeter=0;entryX=1;entryY=0.086;entryDx=0;entryDy=0;entryPerimeter=0;" parent="1" source="6swf2HXfbsQknAuUjtrE-33" target="6swf2HXfbsQknAuUjtrE-9" edge="1">
          <mxGeometry width="100" height="100" relative="1" as="geometry">
            <mxPoint x="504" y="565" as="sourcePoint" />
            <mxPoint x="510" y="240" as="targetPoint" />
            <Array as="points">
              <mxPoint x="520" y="590" />
              <mxPoint x="520" y="230" />
            </Array>
          </mxGeometry>
        </mxCell>
        <mxCell id="6swf2HXfbsQknAuUjtrE-37" value="Language" style="swimlane;fontStyle=0;childLayout=stackLayout;horizontal=1;startSize=26;fillColor=#FFE6CC;horizontalStack=0;resizeParent=1;resizeParentMax=0;resizeLast=0;collapsible=1;marginBottom=0;swimlaneFillColor=#ffffff;align=center;strokeWidth=1;fontSize=13;strokeColor=#d79b00;" parent="1" vertex="1">
          <mxGeometry x="332" y="640" width="130" height="90" as="geometry" />
        </mxCell>
        <mxCell id="6swf2HXfbsQknAuUjtrE-38" value="code&#xa;-----------------------&#xa;messageValue&#xa;locale" style="shape=partialRectangle;top=0;left=0;right=0;bottom=0;align=left;verticalAlign=top;fillColor=none;spacingLeft=34;spacingRight=4;overflow=hidden;rotatable=0;points=[[0,0.5],[1,0.5]];portConstraint=eastwest;dropTarget=0;" parent="6swf2HXfbsQknAuUjtrE-37" vertex="1">
          <mxGeometry y="26" width="130" height="64" as="geometry" />
        </mxCell>
        <mxCell id="6swf2HXfbsQknAuUjtrE-39" value="UN&#xa;-----&#xa;Â &#xa;&#xa;&#xa;&#xa;&#xa;" style="shape=partialRectangle;top=0;left=0;bottom=0;fillColor=none;align=left;verticalAlign=top;spacingLeft=4;spacingRight=4;overflow=hidden;rotatable=0;points=[];portConstraint=eastwest;part=1;" parent="6swf2HXfbsQknAuUjtrE-38" vertex="1" connectable="0">
          <mxGeometry width="30" height="64.00000000000003" as="geometry" />
        </mxCell>
        <mxCell id="6swf2HXfbsQknAuUjtrE-40" value="" style="edgeStyle=none;rounded=0;html=1;startArrow=ERzeroToMany;startFill=1;endArrow=ERzeroToOne;endFill=1;jettySize=auto;orthogonalLoop=1;fontSize=10;strokeColor=#000066;entryX=0.001;entryY=0.219;entryDx=0;entryDy=0;entryPerimeter=0;exitX=0.002;exitY=0.451;exitDx=0;exitDy=0;exitPerimeter=0;" parent="1" source="6swf2HXfbsQknAuUjtrE-9" target="6swf2HXfbsQknAuUjtrE-38" edge="1">
          <mxGeometry relative="1" as="geometry">
            <mxPoint x="310" y="290" as="sourcePoint" />
            <mxPoint x="330" y="680" as="targetPoint" />
            <Array as="points">
              <mxPoint x="290" y="290" />
              <mxPoint x="290" y="680" />
            </Array>
          </mxGeometry>
        </mxCell>
        <mxCell id="6swf2HXfbsQknAuUjtrE-41" value="job_request" style="swimlane;fontStyle=0;childLayout=stackLayout;horizontal=1;startSize=26;fillColor=#ffe6cc;horizontalStack=0;resizeParent=1;resizeParentMax=0;resizeLast=0;collapsible=1;marginBottom=0;swimlaneFillColor=#ffffff;align=center;strokeWidth=1;fontSize=13;strokeColor=#d79b00;" parent="1" vertex="1">
          <mxGeometry x="751" y="10" width="160" height="190" as="geometry" />
        </mxCell>
        <mxCell id="6swf2HXfbsQknAuUjtrE-42" value="id" style="shape=partialRectangle;top=0;left=0;right=0;bottom=1;align=left;verticalAlign=middle;fillColor=none;spacingLeft=34;spacingRight=4;overflow=hidden;rotatable=0;points=[[0,0.5],[1,0.5]];portConstraint=eastwest;dropTarget=0;fontStyle=5;" parent="6swf2HXfbsQknAuUjtrE-41" vertex="1">
          <mxGeometry y="26" width="160" height="30" as="geometry" />
        </mxCell>
        <mxCell id="6swf2HXfbsQknAuUjtrE-43" value="PK" style="shape=partialRectangle;top=0;left=0;bottom=0;fillColor=none;align=left;verticalAlign=middle;spacingLeft=4;spacingRight=4;overflow=hidden;rotatable=0;points=[];portConstraint=eastwest;part=1;fontStyle=1" parent="6swf2HXfbsQknAuUjtrE-42" vertex="1" connectable="0">
          <mxGeometry width="30" height="30" as="geometry" />
        </mxCell>
        <mxCell id="6swf2HXfbsQknAuUjtrE-44" value="auth_user_id&#xa;auth_role_id&#xa;------------------------------&#xa;auth_user_id&#xa;curriculum_file_name&#xa;------------------------------&#xa;auth_user_id&#xa;------------------------------&#xa;job_vacancy_id&#xa;&#xa;" style="shape=partialRectangle;top=0;left=0;right=0;bottom=0;align=left;verticalAlign=top;fillColor=none;spacingLeft=34;spacingRight=4;overflow=hidden;rotatable=0;points=[[0,0.5],[1,0.5]];portConstraint=eastwest;dropTarget=0;fontStyle=0" parent="6swf2HXfbsQknAuUjtrE-41" vertex="1">
          <mxGeometry y="56" width="160" height="134" as="geometry" />
        </mxCell>
        <mxCell id="6swf2HXfbsQknAuUjtrE-45" value="UN&#xa;Â &#xa;-----Â &#xa;FK&#xa;&#xa;-----&#xa;FK&#xa;-----&#xa;FK" style="shape=partialRectangle;top=0;left=0;bottom=0;fillColor=none;align=left;verticalAlign=top;spacingLeft=4;spacingRight=4;overflow=hidden;rotatable=0;points=[];portConstraint=eastwest;part=1;fontStyle=0" parent="6swf2HXfbsQknAuUjtrE-44" vertex="1" connectable="0">
          <mxGeometry width="30" height="134.00000000000003" as="geometry" />
        </mxCell>
        <mxCell id="6swf2HXfbsQknAuUjtrE-46" value="" style="edgeStyle=none;rounded=0;html=1;startArrow=ERzeroToMany;startFill=1;endArrow=ERzeroToOne;endFill=1;jettySize=auto;orthogonalLoop=1;fontSize=10;strokeColor=#000066;entryX=1;entryY=0.5;entryDx=0;entryDy=0;exitX=-0.001;exitY=0.736;exitDx=0;exitDy=0;exitPerimeter=0;" parent="1" source="6swf2HXfbsQknAuUjtrE-44" target="6swf2HXfbsQknAuUjtrE-7" edge="1">
          <mxGeometry relative="1" as="geometry">
            <mxPoint x="734" y="155" as="sourcePoint" />
            <mxPoint x="704" y="255" as="targetPoint" />
            <Array as="points">
              <mxPoint x="740" y="165" />
              <mxPoint x="740" y="220" />
              <mxPoint x="530" y="220" />
              <mxPoint x="530" y="201" />
            </Array>
          </mxGeometry>
        </mxCell>
        <mxCell id="6swf2HXfbsQknAuUjtrE-47" value="job_vacancy" style="swimlane;fontStyle=0;childLayout=stackLayout;horizontal=1;startSize=26;fillColor=#ffe6cc;horizontalStack=0;resizeParent=1;resizeParentMax=0;resizeLast=0;collapsible=1;marginBottom=0;swimlaneFillColor=#ffffff;align=center;strokeWidth=1;fontSize=13;strokeColor=#d79b00;" parent="1" vertex="1">
          <mxGeometry x="751" y="219.5" width="160" height="220" as="geometry" />
        </mxCell>
        <mxCell id="6swf2HXfbsQknAuUjtrE-48" value="id" style="shape=partialRectangle;top=0;left=0;right=0;bottom=1;align=left;verticalAlign=middle;fillColor=none;spacingLeft=34;spacingRight=4;overflow=hidden;rotatable=0;points=[[0,0.5],[1,0.5]];portConstraint=eastwest;dropTarget=0;fontStyle=5;" parent="6swf2HXfbsQknAuUjtrE-47" vertex="1">
          <mxGeometry y="26" width="160" height="30" as="geometry" />
        </mxCell>
        <mxCell id="6swf2HXfbsQknAuUjtrE-49" value="PK" style="shape=partialRectangle;top=0;left=0;bottom=0;fillColor=none;align=left;verticalAlign=middle;spacingLeft=4;spacingRight=4;overflow=hidden;rotatable=0;points=[];portConstraint=eastwest;part=1;fontStyle=1" parent="6swf2HXfbsQknAuUjtrE-48" vertex="1" connectable="0">
          <mxGeometry width="30" height="30" as="geometry" />
        </mxCell>
        <mxCell id="6swf2HXfbsQknAuUjtrE-50" value="status&#xa;------------------------------&#xa;job_company_id&#xa;------------------------------&#xa;job_category_id&#xa;------------------------------&#xa;currency&#xa;------------------------------&#xa;name&#xa;description&#xa;salary" style="shape=partialRectangle;top=0;left=0;right=0;bottom=0;align=left;verticalAlign=top;fillColor=none;spacingLeft=34;spacingRight=4;overflow=hidden;rotatable=0;points=[[0,0.5],[1,0.5]];portConstraint=eastwest;dropTarget=0;fontStyle=0" parent="6swf2HXfbsQknAuUjtrE-47" vertex="1">
          <mxGeometry y="56" width="160" height="164" as="geometry" />
        </mxCell>
        <mxCell id="6swf2HXfbsQknAuUjtrE-51" value="FK&#xa;-----&#xa;FK&#xa;-----&#xa;FK&#xa;-----&#xa;FK&#xa;-----" style="shape=partialRectangle;top=0;left=0;bottom=0;fillColor=none;align=left;verticalAlign=top;spacingLeft=4;spacingRight=4;overflow=hidden;rotatable=0;points=[];portConstraint=eastwest;part=1;fontStyle=0" parent="6swf2HXfbsQknAuUjtrE-50" vertex="1" connectable="0">
          <mxGeometry width="30" height="164" as="geometry" />
        </mxCell>
        <mxCell id="6swf2HXfbsQknAuUjtrE-52" value="" style="edgeStyle=none;rounded=0;html=1;startArrow=ERzeroToMany;startFill=1;endArrow=ERzeroToOne;endFill=1;jettySize=auto;orthogonalLoop=1;fontSize=10;strokeColor=#000066;entryX=1.002;entryY=0.58;entryDx=0;entryDy=0;exitX=1.002;exitY=0.927;exitDx=0;exitDy=0;exitPerimeter=0;entryPerimeter=0;" parent="1" source="6swf2HXfbsQknAuUjtrE-44" target="6swf2HXfbsQknAuUjtrE-48" edge="1">
          <mxGeometry relative="1" as="geometry">
            <mxPoint x="921" y="225" as="sourcePoint" />
            <mxPoint x="721" y="265" as="targetPoint" />
            <Array as="points">
              <mxPoint x="930" y="190" />
              <mxPoint x="930" y="263" />
            </Array>
          </mxGeometry>
        </mxCell>
        <mxCell id="6swf2HXfbsQknAuUjtrE-53" value="JobVacancyStatus" style="swimlane;fontStyle=0;childLayout=stackLayout;horizontal=1;startSize=26;fillColor=#FFE6CC;horizontalStack=0;resizeParent=1;resizeParentMax=0;resizeLast=0;collapsible=1;marginBottom=0;swimlaneFillColor=#ffffff;align=center;strokeWidth=1;fontSize=13;strokeColor=#d79b00;" parent="1" vertex="1">
          <mxGeometry x="971" y="45" width="160" height="80" as="geometry" />
        </mxCell>
        <mxCell id="6swf2HXfbsQknAuUjtrE-54" value="code&#xa;------------------------------&#xa;messageName&#xa;" style="shape=partialRectangle;top=0;left=0;right=0;bottom=0;align=left;verticalAlign=top;fillColor=none;spacingLeft=34;spacingRight=4;overflow=hidden;rotatable=0;points=[[0,0.5],[1,0.5]];portConstraint=eastwest;dropTarget=0;" parent="6swf2HXfbsQknAuUjtrE-53" vertex="1">
          <mxGeometry y="26" width="160" height="54" as="geometry" />
        </mxCell>
        <mxCell id="6swf2HXfbsQknAuUjtrE-55" value="UN&#xa;-----&#xa;Â &#xa;&#xa;&#xa;&#xa;&#xa;" style="shape=partialRectangle;top=0;left=0;bottom=0;fillColor=none;align=left;verticalAlign=top;spacingLeft=4;spacingRight=4;overflow=hidden;rotatable=0;points=[];portConstraint=eastwest;part=1;" parent="6swf2HXfbsQknAuUjtrE-54" vertex="1" connectable="0">
          <mxGeometry width="30" height="54.00000000000002" as="geometry" />
        </mxCell>
        <mxCell id="6swf2HXfbsQknAuUjtrE-56" value="" style="edgeStyle=none;rounded=0;html=1;startArrow=ERzeroToMany;startFill=1;endArrow=ERzeroToOne;endFill=1;jettySize=auto;orthogonalLoop=1;fontSize=10;strokeColor=#000066;entryX=-0.012;entryY=0.204;entryDx=0;entryDy=0;entryPerimeter=0;exitX=1.003;exitY=0.095;exitDx=0;exitDy=0;exitPerimeter=0;" parent="1" source="6swf2HXfbsQknAuUjtrE-50" target="6swf2HXfbsQknAuUjtrE-54" edge="1">
          <mxGeometry relative="1" as="geometry">
            <mxPoint x="999.0799999999999" y="304.9960000000001" as="sourcePoint" />
            <mxPoint x="951" y="418.02600000000007" as="targetPoint" />
            <Array as="points">
              <mxPoint x="941" y="291" />
              <mxPoint x="941" y="82" />
            </Array>
          </mxGeometry>
        </mxCell>
        <mxCell id="6swf2HXfbsQknAuUjtrE-57" value="job_company" style="swimlane;fontStyle=0;childLayout=stackLayout;horizontal=1;startSize=26;fillColor=#FFE6CC;horizontalStack=0;resizeParent=1;resizeParentMax=0;resizeLast=0;collapsible=1;marginBottom=0;swimlaneFillColor=#ffffff;align=center;strokeWidth=1;fontSize=13;strokeColor=#d79b00;" parent="1" vertex="1">
          <mxGeometry x="971" y="140" width="180" height="150" as="geometry" />
        </mxCell>
        <mxCell id="6swf2HXfbsQknAuUjtrE-58" value="id" style="shape=partialRectangle;top=0;left=0;right=0;bottom=1;align=left;verticalAlign=middle;fillColor=none;spacingLeft=34;spacingRight=4;overflow=hidden;rotatable=0;points=[[0,0.5],[1,0.5]];portConstraint=eastwest;dropTarget=0;fontStyle=5;" parent="6swf2HXfbsQknAuUjtrE-57" vertex="1">
          <mxGeometry y="26" width="180" height="30" as="geometry" />
        </mxCell>
        <mxCell id="6swf2HXfbsQknAuUjtrE-59" value="PK" style="shape=partialRectangle;top=0;left=0;bottom=0;fillColor=none;align=left;verticalAlign=middle;spacingLeft=4;spacingRight=4;overflow=hidden;rotatable=0;points=[];portConstraint=eastwest;part=1;fontStyle=1" parent="6swf2HXfbsQknAuUjtrE-58" vertex="1" connectable="0">
          <mxGeometry width="30" height="30" as="geometry" />
        </mxCell>
        <mxCell id="6swf2HXfbsQknAuUjtrE-60" value="name&#xa;-----------------------------------&#xa;id&#xa;selected_logo_file_name&#xa;-----------------------------------&#xa;description&#xa;&#xa;" style="shape=partialRectangle;top=0;left=0;right=0;bottom=0;align=left;verticalAlign=top;fillColor=none;spacingLeft=34;spacingRight=4;overflow=hidden;rotatable=0;points=[[0,0.5],[1,0.5]];portConstraint=eastwest;dropTarget=0;" parent="6swf2HXfbsQknAuUjtrE-57" vertex="1">
          <mxGeometry y="56" width="180" height="94" as="geometry" />
        </mxCell>
        <mxCell id="6swf2HXfbsQknAuUjtrE-61" value="UN&#xa;----- &#xa;FK&#xa;Â &#xa;----- &#xa;&#xa;Â &#xa;&#xa;&#xa;&#xa;" style="shape=partialRectangle;top=0;left=0;bottom=0;fillColor=none;align=left;verticalAlign=top;spacingLeft=4;spacingRight=4;overflow=hidden;rotatable=0;points=[];portConstraint=eastwest;part=1;" parent="6swf2HXfbsQknAuUjtrE-60" vertex="1" connectable="0">
          <mxGeometry width="30" height="94.00000000000001" as="geometry" />
        </mxCell>
        <mxCell id="6swf2HXfbsQknAuUjtrE-62" value="" style="edgeStyle=none;rounded=0;html=1;startArrow=ERzeroToMany;startFill=1;endArrow=ERzeroToOne;endFill=1;jettySize=auto;orthogonalLoop=1;fontSize=10;strokeColor=#000066;entryX=0;entryY=0.5;entryDx=0;entryDy=0;exitX=0.998;exitY=0.264;exitDx=0;exitDy=0;exitPerimeter=0;" parent="1" source="6swf2HXfbsQknAuUjtrE-50" target="6swf2HXfbsQknAuUjtrE-58" edge="1">
          <mxGeometry relative="1" as="geometry">
            <mxPoint x="923.0799999999999" y="296.00800000000004" as="sourcePoint" />
            <mxPoint x="969.0799999999999" y="92.01599999999996" as="targetPoint" />
            <Array as="points">
              <mxPoint x="951" y="319" />
              <mxPoint x="951" y="181" />
            </Array>
          </mxGeometry>
        </mxCell>
        <mxCell id="6swf2HXfbsQknAuUjtrE-63" value="job_company_logo" style="swimlane;fontStyle=0;childLayout=stackLayout;horizontal=1;startSize=26;fillColor=#FFE6CC;horizontalStack=0;resizeParent=1;resizeParentMax=0;resizeLast=0;collapsible=1;marginBottom=0;swimlaneFillColor=#ffffff;align=center;strokeWidth=1;fontSize=13;strokeColor=#d79b00;" parent="1" vertex="1">
          <mxGeometry x="971" y="306" width="160" height="120" as="geometry" />
        </mxCell>
        <mxCell id="6swf2HXfbsQknAuUjtrE-64" value="id" style="shape=partialRectangle;top=0;left=0;right=0;bottom=1;align=left;verticalAlign=middle;fillColor=none;spacingLeft=34;spacingRight=4;overflow=hidden;rotatable=0;points=[[0,0.5],[1,0.5]];portConstraint=eastwest;dropTarget=0;fontStyle=5;" parent="6swf2HXfbsQknAuUjtrE-63" vertex="1">
          <mxGeometry y="26" width="160" height="30" as="geometry" />
        </mxCell>
        <mxCell id="6swf2HXfbsQknAuUjtrE-65" value="PK" style="shape=partialRectangle;top=0;left=0;bottom=0;fillColor=none;align=left;verticalAlign=middle;spacingLeft=4;spacingRight=4;overflow=hidden;rotatable=0;points=[];portConstraint=eastwest;part=1;fontStyle=1" parent="6swf2HXfbsQknAuUjtrE-64" vertex="1" connectable="0">
          <mxGeometry width="30" height="30" as="geometry" />
        </mxCell>
        <mxCell id="6swf2HXfbsQknAuUjtrE-66" value="job_company_id&#xa;file_name&#xa;------------------------------&#xa;job_company_id&#xa;" style="shape=partialRectangle;top=0;left=0;right=0;bottom=0;align=left;verticalAlign=top;fillColor=none;spacingLeft=34;spacingRight=4;overflow=hidden;rotatable=0;points=[[0,0.5],[1,0.5]];portConstraint=eastwest;dropTarget=0;" parent="6swf2HXfbsQknAuUjtrE-63" vertex="1">
          <mxGeometry y="56" width="160" height="64" as="geometry" />
        </mxCell>
        <mxCell id="6swf2HXfbsQknAuUjtrE-67" value="UN&#xa;Â &#xa;-----&#xa;FK&#xa;&#xa;&#xa;" style="shape=partialRectangle;top=0;left=0;bottom=0;fillColor=none;align=left;verticalAlign=top;spacingLeft=4;spacingRight=4;overflow=hidden;rotatable=0;points=[];portConstraint=eastwest;part=1;" parent="6swf2HXfbsQknAuUjtrE-66" vertex="1" connectable="0">
          <mxGeometry width="30" height="64.00000000000003" as="geometry" />
        </mxCell>
        <mxCell id="6swf2HXfbsQknAuUjtrE-68" value="" style="edgeStyle=none;rounded=0;html=1;startArrow=ERzeroToMany;startFill=1;endArrow=ERzeroToOne;endFill=1;jettySize=auto;orthogonalLoop=1;fontSize=10;strokeColor=#000066;entryX=0;entryY=0.5;entryDx=0;entryDy=0;exitX=0;exitY=0.846;exitDx=0;exitDy=0;exitPerimeter=0;" parent="1" source="6swf2HXfbsQknAuUjtrE-66" target="6swf2HXfbsQknAuUjtrE-58" edge="1">
          <mxGeometry relative="1" as="geometry">
            <mxPoint x="924.04" y="324.0139999999999" as="sourcePoint" />
            <mxPoint x="981" y="206" as="targetPoint" />
            <Array as="points">
              <mxPoint x="951" y="416" />
              <mxPoint x="951" y="181" />
            </Array>
          </mxGeometry>
        </mxCell>
        <mxCell id="6swf2HXfbsQknAuUjtrE-69" value="job_category" style="swimlane;fontStyle=0;childLayout=stackLayout;horizontal=1;startSize=26;fillColor=#FFE6CC;horizontalStack=0;resizeParent=1;resizeParentMax=0;resizeLast=0;collapsible=1;marginBottom=0;swimlaneFillColor=#ffffff;align=center;strokeWidth=1;fontSize=13;strokeColor=#d79b00;" parent="1" vertex="1">
          <mxGeometry x="971" y="441" width="160" height="110" as="geometry" />
        </mxCell>
        <mxCell id="6swf2HXfbsQknAuUjtrE-70" value="id" style="shape=partialRectangle;top=0;left=0;right=0;bottom=1;align=left;verticalAlign=middle;fillColor=none;spacingLeft=34;spacingRight=4;overflow=hidden;rotatable=0;points=[[0,0.5],[1,0.5]];portConstraint=eastwest;dropTarget=0;fontStyle=5;" parent="6swf2HXfbsQknAuUjtrE-69" vertex="1">
          <mxGeometry y="26" width="160" height="30" as="geometry" />
        </mxCell>
        <mxCell id="6swf2HXfbsQknAuUjtrE-71" value="PK" style="shape=partialRectangle;top=0;left=0;bottom=0;fillColor=none;align=left;verticalAlign=middle;spacingLeft=4;spacingRight=4;overflow=hidden;rotatable=0;points=[];portConstraint=eastwest;part=1;fontStyle=1" parent="6swf2HXfbsQknAuUjtrE-70" vertex="1" connectable="0">
          <mxGeometry width="30" height="30" as="geometry" />
        </mxCell>
        <mxCell id="6swf2HXfbsQknAuUjtrE-72" value="name&#xa;------------------------------&#xa;description&#xa;" style="shape=partialRectangle;top=0;left=0;right=0;bottom=0;align=left;verticalAlign=top;fillColor=none;spacingLeft=34;spacingRight=4;overflow=hidden;rotatable=0;points=[[0,0.5],[1,0.5]];portConstraint=eastwest;dropTarget=0;" parent="6swf2HXfbsQknAuUjtrE-69" vertex="1">
          <mxGeometry y="56" width="160" height="54" as="geometry" />
        </mxCell>
        <mxCell id="6swf2HXfbsQknAuUjtrE-73" value="UN&#xa;----- &#xa;Â &#xa;&#xa;" style="shape=partialRectangle;top=0;left=0;bottom=0;fillColor=none;align=left;verticalAlign=top;spacingLeft=4;spacingRight=4;overflow=hidden;rotatable=0;points=[];portConstraint=eastwest;part=1;" parent="6swf2HXfbsQknAuUjtrE-72" vertex="1" connectable="0">
          <mxGeometry width="30" height="54.000000000000014" as="geometry" />
        </mxCell>
        <mxCell id="6swf2HXfbsQknAuUjtrE-74" value="" style="edgeStyle=none;rounded=0;html=1;startArrow=ERzeroToMany;startFill=1;endArrow=ERzeroToOne;endFill=1;jettySize=auto;orthogonalLoop=1;fontSize=10;strokeColor=#000066;entryX=0;entryY=0.5;entryDx=0;entryDy=0;exitX=1.002;exitY=0.43;exitDx=0;exitDy=0;exitPerimeter=0;" parent="1" source="6swf2HXfbsQknAuUjtrE-50" target="6swf2HXfbsQknAuUjtrE-70" edge="1">
          <mxGeometry relative="1" as="geometry">
            <mxPoint x="921" y="365" as="sourcePoint" />
            <mxPoint x="981" y="276" as="targetPoint" />
            <Array as="points">
              <mxPoint x="940" y="346" />
              <mxPoint x="941" y="482" />
            </Array>
          </mxGeometry>
        </mxCell>
        <mxCell id="6swf2HXfbsQknAuUjtrE-75" value="auth_persistent_logins" style="swimlane;fontStyle=0;childLayout=stackLayout;horizontal=1;startSize=26;fillColor=#FFE6CC;horizontalStack=0;resizeParent=1;resizeParentMax=0;resizeLast=0;collapsible=1;marginBottom=0;swimlaneFillColor=#ffffff;align=center;strokeWidth=1;fontSize=13;strokeColor=#d79b00;" parent="1" vertex="1">
          <mxGeometry x="751" y="460" width="160" height="120" as="geometry" />
        </mxCell>
        <mxCell id="6swf2HXfbsQknAuUjtrE-76" value="series" style="shape=partialRectangle;top=0;left=0;right=0;bottom=1;align=left;verticalAlign=middle;fillColor=none;spacingLeft=34;spacingRight=4;overflow=hidden;rotatable=0;points=[[0,0.5],[1,0.5]];portConstraint=eastwest;dropTarget=0;fontStyle=5;" parent="6swf2HXfbsQknAuUjtrE-75" vertex="1">
          <mxGeometry y="26" width="160" height="30" as="geometry" />
        </mxCell>
        <mxCell id="6swf2HXfbsQknAuUjtrE-77" value="PK" style="shape=partialRectangle;top=0;left=0;bottom=0;fillColor=none;align=left;verticalAlign=middle;spacingLeft=4;spacingRight=4;overflow=hidden;rotatable=0;points=[];portConstraint=eastwest;part=1;fontStyle=1" parent="6swf2HXfbsQknAuUjtrE-76" vertex="1" connectable="0">
          <mxGeometry width="30" height="30" as="geometry" />
        </mxCell>
        <mxCell id="6swf2HXfbsQknAuUjtrE-78" value="email&#xa;------------------------------&#xa;token&#xa;last_used" style="shape=partialRectangle;top=0;left=0;right=0;bottom=0;align=left;verticalAlign=top;fillColor=none;spacingLeft=34;spacingRight=4;overflow=hidden;rotatable=0;points=[[0,0.5],[1,0.5]];portConstraint=eastwest;dropTarget=0;" parent="6swf2HXfbsQknAuUjtrE-75" vertex="1">
          <mxGeometry y="56" width="160" height="64" as="geometry" />
        </mxCell>
        <mxCell id="6swf2HXfbsQknAuUjtrE-79" value="UN&#xa;-----&#xa;Â &#xa; &#xa;&#xa;" style="shape=partialRectangle;top=0;left=0;bottom=0;fillColor=none;align=left;verticalAlign=top;spacingLeft=4;spacingRight=4;overflow=hidden;rotatable=0;points=[];portConstraint=eastwest;part=1;" parent="6swf2HXfbsQknAuUjtrE-78" vertex="1" connectable="0">
          <mxGeometry width="30" height="64.00000000000003" as="geometry" />
        </mxCell>
        <mxCell id="6swf2HXfbsQknAuUjtrE-80" value="" style="fontSize=12;html=1;endArrow=ERzeroToOne;endFill=1;rounded=0;strokeColor=#009900;exitX=0.001;exitY=0.249;exitDx=0;exitDy=0;exitPerimeter=0;entryX=1;entryY=0.086;entryDx=0;entryDy=0;entryPerimeter=0;" parent="1" source="6swf2HXfbsQknAuUjtrE-78" target="6swf2HXfbsQknAuUjtrE-9" edge="1">
          <mxGeometry width="100" height="100" relative="1" as="geometry">
            <mxPoint x="740" y="520" as="sourcePoint" />
            <mxPoint x="510" y="240" as="targetPoint" />
            <Array as="points">
              <mxPoint x="730" y="532" />
              <mxPoint x="730" y="230" />
            </Array>
          </mxGeometry>
        </mxCell>
        <mxCell id="6swf2HXfbsQknAuUjtrE-81" value="" style="fontSize=12;html=1;endArrow=ERzeroToOne;endFill=1;rounded=0;strokeColor=#000066;entryX=1;entryY=0.358;entryDx=0;entryDy=0;entryPerimeter=0;exitX=1.003;exitY=0.533;exitDx=0;exitDy=0;exitPerimeter=0;" parent="1" source="6swf2HXfbsQknAuUjtrE-60" target="6swf2HXfbsQknAuUjtrE-66" edge="1">
          <mxGeometry width="100" height="100" relative="1" as="geometry">
            <mxPoint x="1161" y="255" as="sourcePoint" />
            <mxPoint x="1141" y="385" as="targetPoint" />
            <Array as="points">
              <mxPoint x="1161" y="246" />
              <mxPoint x="1161" y="385" />
            </Array>
          </mxGeometry>
        </mxCell>
        <mxCell id="6swf2HXfbsQknAuUjtrE-82" value="" style="edgeStyle=none;rounded=0;html=1;startArrow=ERzeroToMany;startFill=1;endArrow=ERzeroToOne;endFill=1;jettySize=auto;orthogonalLoop=1;fontSize=10;strokeColor=#000066;exitX=0.006;exitY=0.447;exitDx=0;exitDy=0;exitPerimeter=0;entryX=0.998;entryY=0.376;entryDx=0;entryDy=0;entryPerimeter=0;" parent="1" source="6swf2HXfbsQknAuUjtrE-44" target="6swf2HXfbsQknAuUjtrE-22" edge="1">
          <mxGeometry relative="1" as="geometry">
            <mxPoint x="755" y="210" as="sourcePoint" />
            <mxPoint x="503" y="122" as="targetPoint" />
            <Array as="points">
              <mxPoint x="740" y="126" />
              <mxPoint x="740" y="110" />
            </Array>
          </mxGeometry>
        </mxCell>
        <mxCell id="6swf2HXfbsQknAuUjtrE-83" value="TablePageSize" style="swimlane;fontStyle=0;childLayout=stackLayout;horizontal=1;startSize=26;fillColor=#FFE6CC;horizontalStack=0;resizeParent=1;resizeParentMax=0;resizeLast=0;collapsible=1;marginBottom=0;swimlaneFillColor=#ffffff;align=center;strokeWidth=1;fontSize=13;strokeColor=#d79b00;" parent="1" vertex="1">
          <mxGeometry x="332" y="740" width="130" height="80" as="geometry" />
        </mxCell>
        <mxCell id="6swf2HXfbsQknAuUjtrE-84" value="value&#xa;-----------------------&#xa;messageName" style="shape=partialRectangle;top=0;left=0;right=0;bottom=0;align=left;verticalAlign=top;fillColor=none;spacingLeft=34;spacingRight=4;overflow=hidden;rotatable=0;points=[[0,0.5],[1,0.5]];portConstraint=eastwest;dropTarget=0;" parent="6swf2HXfbsQknAuUjtrE-83" vertex="1">
          <mxGeometry y="26" width="130" height="54" as="geometry" />
        </mxCell>
        <mxCell id="6swf2HXfbsQknAuUjtrE-85" value="UN&#xa;-----&#xa;Â &#xa;&#xa;&#xa;&#xa;&#xa;" style="shape=partialRectangle;top=0;left=0;bottom=0;fillColor=none;align=left;verticalAlign=top;spacingLeft=4;spacingRight=4;overflow=hidden;rotatable=0;points=[];portConstraint=eastwest;part=1;" parent="6swf2HXfbsQknAuUjtrE-84" vertex="1" connectable="0">
          <mxGeometry width="30" height="54.00000000000002" as="geometry" />
        </mxCell>
        <mxCell id="6swf2HXfbsQknAuUjtrE-86" value="" style="edgeStyle=none;rounded=0;html=1;startArrow=ERzeroToMany;startFill=1;endArrow=ERzeroToOne;endFill=1;jettySize=auto;orthogonalLoop=1;fontSize=10;strokeColor=#000066;exitX=1;exitY=0.928;exitDx=0;exitDy=0;exitPerimeter=0;entryX=1.003;entryY=0.259;entryDx=0;entryDy=0;entryPerimeter=0;" parent="1" source="6swf2HXfbsQknAuUjtrE-9" target="6swf2HXfbsQknAuUjtrE-84" edge="1">
          <mxGeometry relative="1" as="geometry">
            <mxPoint x="345" y="288" as="sourcePoint" />
            <mxPoint x="462" y="780" as="targetPoint" />
            <Array as="points">
              <mxPoint x="530" y="368" />
              <mxPoint x="530" y="780" />
            </Array>
          </mxGeometry>
        </mxCell>
        <mxCell id="6swf2HXfbsQknAuUjtrE-87" value="ColorMode" style="swimlane;fontStyle=0;childLayout=stackLayout;horizontal=1;startSize=26;fillColor=#FFE6CC;horizontalStack=0;resizeParent=1;resizeParentMax=0;resizeLast=0;collapsible=1;marginBottom=0;swimlaneFillColor=#ffffff;align=center;strokeWidth=1;fontSize=13;strokeColor=#d79b00;" parent="1" vertex="1">
          <mxGeometry x="580.5" y="571" width="130" height="90" as="geometry" />
        </mxCell>
        <mxCell id="6swf2HXfbsQknAuUjtrE-88" value="code&#xa;-----------------------&#xa;value&#xa;messageName" style="shape=partialRectangle;top=0;left=0;right=0;bottom=0;align=left;verticalAlign=top;fillColor=none;spacingLeft=34;spacingRight=4;overflow=hidden;rotatable=0;points=[[0,0.5],[1,0.5]];portConstraint=eastwest;dropTarget=0;" parent="6swf2HXfbsQknAuUjtrE-87" vertex="1">
          <mxGeometry y="26" width="130" height="64" as="geometry" />
        </mxCell>
        <mxCell id="6swf2HXfbsQknAuUjtrE-89" value="UN&#xa;-----&#xa;Â &#xa;&#xa;&#xa;&#xa;&#xa;" style="shape=partialRectangle;top=0;left=0;bottom=0;fillColor=none;align=left;verticalAlign=top;spacingLeft=4;spacingRight=4;overflow=hidden;rotatable=0;points=[];portConstraint=eastwest;part=1;" parent="6swf2HXfbsQknAuUjtrE-88" vertex="1" connectable="0">
          <mxGeometry width="30" height="64.00000000000003" as="geometry" />
        </mxCell>
        <mxCell id="6swf2HXfbsQknAuUjtrE-90" value="" style="edgeStyle=none;rounded=0;html=1;startArrow=ERzeroToMany;startFill=1;endArrow=ERzeroToOne;endFill=1;jettySize=auto;orthogonalLoop=1;fontSize=10;strokeColor=#000066;entryX=-0.004;entryY=0.25;entryDx=0;entryDy=0;entryPerimeter=0;exitX=0.998;exitY=0.6;exitDx=0;exitDy=0;exitPerimeter=0;" parent="1" source="6swf2HXfbsQknAuUjtrE-9" target="6swf2HXfbsQknAuUjtrE-88" edge="1">
          <mxGeometry relative="1" as="geometry">
            <mxPoint x="505" y="295" as="sourcePoint" />
            <mxPoint x="255.26" y="602.296" as="targetPoint" />
            <Array as="points">
              <mxPoint x="550" y="314" />
              <mxPoint x="549" y="613" />
            </Array>
          </mxGeometry>
        </mxCell>
        <mxCell id="6swf2HXfbsQknAuUjtrE-91" value="auth_user_entity_query" style="swimlane;fontStyle=0;childLayout=stackLayout;horizontal=1;startSize=26;fillColor=#ffe6cc;horizontalStack=0;resizeParent=1;resizeParentMax=0;resizeLast=0;collapsible=1;marginBottom=0;swimlaneFillColor=#ffffff;align=center;strokeWidth=1;fontSize=13;strokeColor=#d79b00;" parent="1" vertex="1">
          <mxGeometry x="17" y="10" width="230" height="340" as="geometry" />
        </mxCell>
        <mxCell id="6swf2HXfbsQknAuUjtrE-92" value="id" style="shape=partialRectangle;top=0;left=0;right=0;bottom=1;align=left;verticalAlign=middle;fillColor=none;spacingLeft=34;spacingRight=4;overflow=hidden;rotatable=0;points=[[0,0.5],[1,0.5]];portConstraint=eastwest;dropTarget=0;fontStyle=5;" parent="6swf2HXfbsQknAuUjtrE-91" vertex="1">
          <mxGeometry y="26" width="230" height="30" as="geometry" />
        </mxCell>
        <mxCell id="6swf2HXfbsQknAuUjtrE-93" value="PK" style="shape=partialRectangle;top=0;left=0;bottom=0;fillColor=none;align=left;verticalAlign=middle;spacingLeft=4;spacingRight=4;overflow=hidden;rotatable=0;points=[];portConstraint=eastwest;part=1;fontStyle=1" parent="6swf2HXfbsQknAuUjtrE-92" vertex="1" connectable="0">
          <mxGeometry width="30" height="30" as="geometry" />
        </mxCell>
        <mxCell id="6swf2HXfbsQknAuUjtrE-94" value="page_entity&#xa;------------------------------------------------&#xa;initial_pdf_document_page_format&#xa;------------------------------------------------&#xa;final_pdf_document_page_format&#xa;------------------------------------------------&#xa;auth_user_id&#xa;------------------------------------------------&#xa;language&#xa;------------------------------------------------&#xa;predefined_filter_name&#xa;------------------------------------------------&#xa;filter_name&#xa;------------------------------------------------&#xa;sorting_field&#xa;------------------------------------------------&#xa;sorting_direction&#xa;------------------------------------------------&#xa;page_size" style="shape=partialRectangle;top=0;left=0;right=0;bottom=0;align=left;verticalAlign=top;fillColor=none;spacingLeft=34;spacingRight=4;overflow=hidden;rotatable=0;points=[[0,0.5],[1,0.5]];portConstraint=eastwest;dropTarget=0;fontStyle=0" parent="6swf2HXfbsQknAuUjtrE-91" vertex="1">
          <mxGeometry y="56" width="230" height="284" as="geometry" />
        </mxCell>
        <mxCell id="6swf2HXfbsQknAuUjtrE-95" value="FK&#xa;-----&#xa;FK&#xa;-----&#xa;FK&#xa;-----&#xa;FK&#xa;-----&#xa;FK&#xa;-----&#xa;FK&#xa;-----&#xa;FK&#xa;-----&#xa;FK&#xa;-----&#xa;FK&#xa;-----&#xa;FK" style="shape=partialRectangle;top=0;left=0;bottom=0;fillColor=none;align=left;verticalAlign=top;spacingLeft=4;spacingRight=4;overflow=hidden;rotatable=0;points=[];portConstraint=eastwest;part=1;fontStyle=0" parent="6swf2HXfbsQknAuUjtrE-94" vertex="1" connectable="0">
          <mxGeometry width="29.870129870129873" height="284" as="geometry" />
        </mxCell>
        <mxCell id="6swf2HXfbsQknAuUjtrE-96" value="TableField" style="swimlane;fontStyle=0;childLayout=stackLayout;horizontal=1;startSize=26;fillColor=#FFE6CC;horizontalStack=0;resizeParent=1;resizeParentMax=0;resizeLast=0;collapsible=1;marginBottom=0;swimlaneFillColor=#ffffff;align=center;strokeWidth=1;fontSize=13;strokeColor=#d79b00;" parent="1" vertex="1">
          <mxGeometry x="117" y="466" width="130" height="110" as="geometry" />
        </mxCell>
        <mxCell id="6swf2HXfbsQknAuUjtrE-97" value="code&#xa;-----------------------&#xa;entity&#xa;-----------------------&#xa;messageName&#xa;" style="shape=partialRectangle;top=0;left=0;right=0;bottom=0;align=left;verticalAlign=top;fillColor=none;spacingLeft=34;spacingRight=4;overflow=hidden;rotatable=0;points=[[0,0.5],[1,0.5]];portConstraint=eastwest;dropTarget=0;" parent="6swf2HXfbsQknAuUjtrE-96" vertex="1">
          <mxGeometry y="26" width="130" height="84" as="geometry" />
        </mxCell>
        <mxCell id="6swf2HXfbsQknAuUjtrE-98" value="UN&#xa;-----&#xa;Â FK&#xa;-----&#xa;&#xa;&#xa;&#xa;&#xa;" style="shape=partialRectangle;top=0;left=0;bottom=0;fillColor=none;align=left;verticalAlign=top;spacingLeft=4;spacingRight=4;overflow=hidden;rotatable=0;points=[];portConstraint=eastwest;part=1;" parent="6swf2HXfbsQknAuUjtrE-97" vertex="1" connectable="0">
          <mxGeometry width="30" height="84.00000000000004" as="geometry" />
        </mxCell>
        <mxCell id="6swf2HXfbsQknAuUjtrE-99" value="TableSortingDirection" style="swimlane;fontStyle=0;childLayout=stackLayout;horizontal=1;startSize=26;fillColor=#FFE6CC;horizontalStack=0;resizeParent=1;resizeParentMax=0;resizeLast=0;collapsible=1;marginBottom=0;swimlaneFillColor=#ffffff;align=center;strokeWidth=1;fontSize=13;strokeColor=#d79b00;" parent="1" vertex="1">
          <mxGeometry x="90" y="363" width="157" height="90" as="geometry" />
        </mxCell>
        <mxCell id="6swf2HXfbsQknAuUjtrE-100" value="code&#xa;------------------------------&#xa;messageName&#xa;sortDirection" style="shape=partialRectangle;top=0;left=0;right=0;bottom=0;align=left;verticalAlign=top;fillColor=none;spacingLeft=34;spacingRight=4;overflow=hidden;rotatable=0;points=[[0,0.5],[1,0.5]];portConstraint=eastwest;dropTarget=0;" parent="6swf2HXfbsQknAuUjtrE-99" vertex="1">
          <mxGeometry y="26" width="157" height="64" as="geometry" />
        </mxCell>
        <mxCell id="6swf2HXfbsQknAuUjtrE-101" value="UN&#xa;-----&#xa;&#xa;&#xa;&#xa;&#xa;&#xa;" style="shape=partialRectangle;top=0;left=0;bottom=0;fillColor=none;align=left;verticalAlign=top;spacingLeft=4;spacingRight=4;overflow=hidden;rotatable=0;points=[];portConstraint=eastwest;part=1;" parent="6swf2HXfbsQknAuUjtrE-100" vertex="1" connectable="0">
          <mxGeometry width="30" height="64.00000000000001" as="geometry" />
        </mxCell>
        <mxCell id="6swf2HXfbsQknAuUjtrE-102" value="" style="edgeStyle=none;rounded=0;html=1;startArrow=ERzeroToMany;startFill=1;endArrow=ERzeroToOne;endFill=1;jettySize=auto;orthogonalLoop=1;fontSize=10;strokeColor=#000066;entryX=0;entryY=0.5;entryDx=0;entryDy=0;exitX=0.999;exitY=0.35;exitDx=0;exitDy=0;exitPerimeter=0;" parent="1" source="6swf2HXfbsQknAuUjtrE-94" target="6swf2HXfbsQknAuUjtrE-7" edge="1">
          <mxGeometry relative="1" as="geometry">
            <mxPoint x="293" y="145" as="sourcePoint" />
            <mxPoint x="294" y="211" as="targetPoint" />
            <Array as="points">
              <mxPoint x="300" y="165" />
              <mxPoint x="300" y="201" />
            </Array>
          </mxGeometry>
        </mxCell>
        <mxCell id="6swf2HXfbsQknAuUjtrE-103" value="" style="edgeStyle=none;rounded=0;html=1;startArrow=ERzeroToMany;startFill=1;endArrow=ERzeroToOne;endFill=1;jettySize=auto;orthogonalLoop=1;fontSize=10;strokeColor=#000066;exitX=0.999;exitY=0.444;exitDx=0;exitDy=0;exitPerimeter=0;entryX=0.001;entryY=0.22;entryDx=0;entryDy=0;entryPerimeter=0;" parent="1" source="6swf2HXfbsQknAuUjtrE-94" target="6swf2HXfbsQknAuUjtrE-38" edge="1">
          <mxGeometry relative="1" as="geometry">
            <mxPoint x="266" y="129" as="sourcePoint" />
            <mxPoint x="330" y="677" as="targetPoint" />
            <Array as="points">
              <mxPoint x="290" y="192" />
              <mxPoint x="290" y="670" />
              <mxPoint x="290" y="680" />
            </Array>
          </mxGeometry>
        </mxCell>
        <mxCell id="6swf2HXfbsQknAuUjtrE-104" value="" style="edgeStyle=none;rounded=0;html=1;startArrow=ERzeroToMany;startFill=1;endArrow=ERzeroToOne;endFill=1;jettySize=auto;orthogonalLoop=1;fontSize=10;strokeColor=#000066;entryX=1.003;entryY=0.213;entryDx=0;entryDy=0;entryPerimeter=0;exitX=1;exitY=0.641;exitDx=0;exitDy=0;exitPerimeter=0;" parent="1" source="6swf2HXfbsQknAuUjtrE-94" target="6swf2HXfbsQknAuUjtrE-97" edge="1">
          <mxGeometry relative="1" as="geometry">
            <mxPoint x="250" y="250" as="sourcePoint" />
            <mxPoint x="210" y="445" as="targetPoint" />
            <Array as="points">
              <mxPoint x="270" y="248" />
              <mxPoint x="270" y="510" />
            </Array>
          </mxGeometry>
        </mxCell>
        <mxCell id="6swf2HXfbsQknAuUjtrE-106" value="" style="edgeStyle=none;rounded=0;html=1;startArrow=ERzeroToMany;startFill=1;endArrow=ERzeroToOne;endFill=1;jettySize=auto;orthogonalLoop=1;fontSize=10;strokeColor=#000066;entryX=1.002;entryY=0.251;entryDx=0;entryDy=0;entryPerimeter=0;exitX=0.999;exitY=0.839;exitDx=0;exitDy=0;exitPerimeter=0;" parent="1" source="6swf2HXfbsQknAuUjtrE-94" target="6swf2HXfbsQknAuUjtrE-100" edge="1">
          <mxGeometry relative="1" as="geometry">
            <mxPoint x="250" y="240" as="sourcePoint" />
            <mxPoint x="202" y="335" as="targetPoint" />
            <Array as="points">
              <mxPoint x="260" y="304" />
              <mxPoint x="260" y="405" />
            </Array>
          </mxGeometry>
        </mxCell>
        <mxCell id="6swf2HXfbsQknAuUjtrE-107" value="" style="edgeStyle=none;rounded=0;html=1;startArrow=ERzeroToMany;startFill=1;endArrow=ERzeroToOne;endFill=1;jettySize=auto;orthogonalLoop=1;fontSize=10;strokeColor=#000066;entryX=0;entryY=0.266;entryDx=0;entryDy=0;entryPerimeter=0;exitX=0;exitY=0.951;exitDx=0;exitDy=0;exitPerimeter=0;" parent="1" source="6swf2HXfbsQknAuUjtrE-94" target="6swf2HXfbsQknAuUjtrE-84" edge="1">
          <mxGeometry relative="1" as="geometry">
            <mxPoint x="85" y="255" as="sourcePoint" />
            <mxPoint x="86" y="415.5" as="targetPoint" />
            <Array as="points">
              <mxPoint x="10" y="336" />
              <mxPoint x="10" y="780" />
            </Array>
          </mxGeometry>
        </mxCell>
        <mxCell id="6swf2HXfbsQknAuUjtrE-108" value="PdfDocumentPageFormat" style="swimlane;fontStyle=0;childLayout=stackLayout;horizontal=1;startSize=26;fillColor=#FFE6CC;horizontalStack=0;resizeParent=1;resizeParentMax=0;resizeLast=0;collapsible=1;marginBottom=0;swimlaneFillColor=#ffffff;align=center;strokeWidth=1;fontSize=13;strokeColor=#d79b00;" parent="1" vertex="1">
          <mxGeometry x="550" y="120" width="172" height="90" as="geometry" />
        </mxCell>
        <mxCell id="6swf2HXfbsQknAuUjtrE-109" value="code&#xa;------------------------------------&#xa;messageName&#xa;rectangle&#xa;" style="shape=partialRectangle;top=0;left=0;right=0;bottom=0;align=left;verticalAlign=top;fillColor=none;spacingLeft=34;spacingRight=4;overflow=hidden;rotatable=0;points=[[0,0.5],[1,0.5]];portConstraint=eastwest;dropTarget=0;" parent="6swf2HXfbsQknAuUjtrE-108" vertex="1">
          <mxGeometry y="26" width="172" height="64" as="geometry" />
        </mxCell>
        <mxCell id="6swf2HXfbsQknAuUjtrE-110" value="UN&#xa;-----&#xa;Â &#xa;&#xa;&#xa;&#xa;&#xa;" style="shape=partialRectangle;top=0;left=0;bottom=0;fillColor=none;align=left;verticalAlign=top;spacingLeft=4;spacingRight=4;overflow=hidden;rotatable=0;points=[];portConstraint=eastwest;part=1;" parent="6swf2HXfbsQknAuUjtrE-109" vertex="1" connectable="0">
          <mxGeometry width="30" height="64.00000000000003" as="geometry" />
        </mxCell>
        <mxCell id="6swf2HXfbsQknAuUjtrE-111" value="" style="edgeStyle=none;rounded=0;html=1;startArrow=ERzeroToMany;startFill=1;endArrow=ERzeroToOne;endFill=1;jettySize=auto;orthogonalLoop=1;fontSize=10;strokeColor=#FF0000;exitX=0.998;exitY=0.311;exitDx=0;exitDy=0;exitPerimeter=0;entryX=0.004;entryY=0.221;entryDx=0;entryDy=0;entryPerimeter=0;" parent="1" source="6swf2HXfbsQknAuUjtrE-9" target="6swf2HXfbsQknAuUjtrE-109" edge="1">
          <mxGeometry relative="1" as="geometry">
            <mxPoint x="509" y="343" as="sourcePoint" />
            <mxPoint x="599" y="141.42857142857142" as="targetPoint" />
            <Array as="points">
              <mxPoint x="540" y="267" />
              <mxPoint x="540" y="160" />
            </Array>
          </mxGeometry>
        </mxCell>
        <mxCell id="6swf2HXfbsQknAuUjtrE-112" value="" style="edgeStyle=none;rounded=0;html=1;startArrow=ERzeroToMany;startFill=1;endArrow=ERzeroToOne;endFill=1;jettySize=auto;orthogonalLoop=1;fontSize=10;strokeColor=#FF0000;entryX=0.004;entryY=0.22;entryDx=0;entryDy=0;entryPerimeter=0;exitX=0.998;exitY=0.246;exitDx=0;exitDy=0;exitPerimeter=0;" parent="1" source="6swf2HXfbsQknAuUjtrE-94" target="6swf2HXfbsQknAuUjtrE-109" edge="1">
          <mxGeometry relative="1" as="geometry">
            <mxPoint x="250" y="120" as="sourcePoint" />
            <mxPoint x="620" y="180" as="targetPoint" />
            <Array as="points">
              <mxPoint x="280" y="136" />
              <mxPoint x="280" y="20" />
              <mxPoint x="530" y="20" />
              <mxPoint x="530" y="160" />
            </Array>
          </mxGeometry>
        </mxCell>
        <mxCell id="6swf2HXfbsQknAuUjtrE-113" value="" style="edgeStyle=none;rounded=0;html=1;startArrow=ERzeroToMany;startFill=1;endArrow=ERzeroToOne;endFill=1;jettySize=auto;orthogonalLoop=1;fontSize=10;strokeColor=#FF0000;entryX=0.004;entryY=0.217;entryDx=0;entryDy=0;entryPerimeter=0;" parent="1" target="6swf2HXfbsQknAuUjtrE-109" edge="1">
          <mxGeometry relative="1" as="geometry">
            <mxPoint x="247" y="110" as="sourcePoint" />
            <mxPoint x="550" y="160" as="targetPoint" />
            <Array as="points">
              <mxPoint x="280" y="110" />
              <mxPoint x="280" y="20" />
              <mxPoint x="530" y="20" />
              <mxPoint x="530" y="160" />
            </Array>
          </mxGeometry>
        </mxCell>
        <mxCell id="Bhp65gLD0eQAcGlZigfF-1" value="PageEntityEnum" style="swimlane;fontStyle=0;childLayout=stackLayout;horizontal=1;startSize=26;fillColor=#FFE6CC;horizontalStack=0;resizeParent=1;resizeParentMax=0;resizeLast=0;collapsible=1;marginBottom=0;swimlaneFillColor=#ffffff;align=center;strokeWidth=1;fontSize=13;strokeColor=#d79b00;" parent="1" vertex="1">
          <mxGeometry x="561.5" y="40" width="149" height="60" as="geometry" />
        </mxCell>
        <mxCell id="Bhp65gLD0eQAcGlZigfF-2" value="value" style="shape=partialRectangle;top=0;left=0;right=0;bottom=0;align=left;verticalAlign=top;fillColor=none;spacingLeft=34;spacingRight=4;overflow=hidden;rotatable=0;points=[[0,0.5],[1,0.5]];portConstraint=eastwest;dropTarget=0;" parent="Bhp65gLD0eQAcGlZigfF-1" vertex="1">
          <mxGeometry y="26" width="149" height="34" as="geometry" />
        </mxCell>
        <mxCell id="Bhp65gLD0eQAcGlZigfF-3" value="UN&#xa;&#xa;Â &#xa;&#xa;&#xa;&#xa;&#xa;" style="shape=partialRectangle;top=0;left=0;bottom=0;fillColor=none;align=left;verticalAlign=top;spacingLeft=4;spacingRight=4;overflow=hidden;rotatable=0;points=[];portConstraint=eastwest;part=1;" parent="Bhp65gLD0eQAcGlZigfF-2" vertex="1" connectable="0">
          <mxGeometry width="30" height="34.000000000000014" as="geometry" />
        </mxCell>
        <mxCell id="Bhp65gLD0eQAcGlZigfF-4" value="" style="edgeStyle=none;rounded=0;html=1;startArrow=ERzeroToMany;startFill=1;endArrow=ERzeroToOne;endFill=1;jettySize=auto;orthogonalLoop=1;fontSize=10;strokeColor=#000066;entryX=0;entryY=0.5;entryDx=0;entryDy=0;exitX=0.999;exitY=0.049;exitDx=0;exitDy=0;exitPerimeter=0;" parent="1" source="6swf2HXfbsQknAuUjtrE-94" target="Bhp65gLD0eQAcGlZigfF-2" edge="1">
          <mxGeometry relative="1" as="geometry">
            <mxPoint x="250" y="80" as="sourcePoint" />
            <mxPoint x="540" y="120" as="targetPoint" />
            <Array as="points">
              <mxPoint x="270" y="80" />
              <mxPoint x="270" y="10" />
              <mxPoint x="540" y="10" />
              <mxPoint x="540" y="83" />
            </Array>
          </mxGeometry>
        </mxCell>
        <mxCell id="oh5yqpQezYpxDcT4D5mR-1" value="auth_user_reset_password" style="swimlane;fontStyle=0;childLayout=stackLayout;horizontal=1;startSize=26;fillColor=#FFE6CC;horizontalStack=0;resizeParent=1;resizeParentMax=0;resizeLast=0;collapsible=1;marginBottom=0;swimlaneFillColor=#ffffff;align=center;strokeWidth=1;fontSize=13;strokeColor=#d79b00;" parent="1" vertex="1">
          <mxGeometry x="751" y="600" width="194" height="120" as="geometry" />
        </mxCell>
        <mxCell id="oh5yqpQezYpxDcT4D5mR-2" value="id" style="shape=partialRectangle;top=0;left=0;right=0;bottom=1;align=left;verticalAlign=middle;fillColor=none;spacingLeft=34;spacingRight=4;overflow=hidden;rotatable=0;points=[[0,0.5],[1,0.5]];portConstraint=eastwest;dropTarget=0;fontStyle=5;" parent="oh5yqpQezYpxDcT4D5mR-1" vertex="1">
          <mxGeometry y="26" width="194" height="30" as="geometry" />
        </mxCell>
        <mxCell id="oh5yqpQezYpxDcT4D5mR-3" value="PK" style="shape=partialRectangle;top=0;left=0;bottom=0;fillColor=none;align=left;verticalAlign=middle;spacingLeft=4;spacingRight=4;overflow=hidden;rotatable=0;points=[];portConstraint=eastwest;part=1;fontStyle=1" parent="oh5yqpQezYpxDcT4D5mR-2" vertex="1" connectable="0">
          <mxGeometry width="30" height="30" as="geometry" />
        </mxCell>
        <mxCell id="oh5yqpQezYpxDcT4D5mR-4" value="email&#xa;---------------------------------------&#xa;email&#xa;uuid" style="shape=partialRectangle;top=0;left=0;right=0;bottom=0;align=left;verticalAlign=top;fillColor=none;spacingLeft=34;spacingRight=4;overflow=hidden;rotatable=0;points=[[0,0.5],[1,0.5]];portConstraint=eastwest;dropTarget=0;" parent="oh5yqpQezYpxDcT4D5mR-1" vertex="1">
          <mxGeometry y="56" width="194" height="64" as="geometry" />
        </mxCell>
        <mxCell id="oh5yqpQezYpxDcT4D5mR-5" value="UN&#xa;-----&#xa;UN&#xa;Â &#xa;&#xa;&#xa;" style="shape=partialRectangle;top=0;left=0;bottom=0;fillColor=none;align=left;verticalAlign=top;spacingLeft=4;spacingRight=4;overflow=hidden;rotatable=0;points=[];portConstraint=eastwest;part=1;" parent="oh5yqpQezYpxDcT4D5mR-4" vertex="1" connectable="0">
          <mxGeometry width="30" height="64.00000000000003" as="geometry" />
        </mxCell>
        <mxCell id="oh5yqpQezYpxDcT4D5mR-6" value="" style="fontSize=12;html=1;endArrow=ERzeroToOne;endFill=1;rounded=0;strokeColor=#009900;exitX=0.001;exitY=0.235;exitDx=0;exitDy=0;exitPerimeter=0;entryX=1;entryY=0.086;entryDx=0;entryDy=0;entryPerimeter=0;" parent="1" source="oh5yqpQezYpxDcT4D5mR-4" target="6swf2HXfbsQknAuUjtrE-9" edge="1">
          <mxGeometry width="100" height="100" relative="1" as="geometry">
            <mxPoint x="750" y="660" as="sourcePoint" />
            <mxPoint x="510" y="240" as="targetPoint" />
            <Array as="points">
              <mxPoint x="730" y="671" />
              <mxPoint x="730" y="230" />
            </Array>
          </mxGeometry>
        </mxCell>
        <mxCell id="FQAta1E75LvSdbTolyzg-2" value="PredefinedFilterEntity" style="swimlane;fontStyle=0;childLayout=stackLayout;horizontal=1;startSize=26;fillColor=#FFE6CC;horizontalStack=0;resizeParent=1;resizeParentMax=0;resizeLast=0;collapsible=1;marginBottom=0;swimlaneFillColor=#ffffff;align=center;strokeWidth=1;fontSize=13;strokeColor=#d79b00;" parent="1" vertex="1">
          <mxGeometry x="70" y="680" width="177" height="80" as="geometry" />
        </mxCell>
        <mxCell id="FQAta1E75LvSdbTolyzg-3" value="upperCasedEntityName&#xa;-----------------------------------&#xa;lowerCasedEntityName" style="shape=partialRectangle;top=0;left=0;right=0;bottom=0;align=left;verticalAlign=top;fillColor=none;spacingLeft=34;spacingRight=4;overflow=hidden;rotatable=0;points=[[0,0.5],[1,0.5]];portConstraint=eastwest;dropTarget=0;" parent="FQAta1E75LvSdbTolyzg-2" vertex="1">
          <mxGeometry y="26" width="177" height="54" as="geometry" />
        </mxCell>
        <mxCell id="FQAta1E75LvSdbTolyzg-4" value="UN&#xa;-----&#xa;UN&#xa;&#xa;&#xa;&#xa;&#xa;" style="shape=partialRectangle;top=0;left=0;bottom=0;fillColor=none;align=left;verticalAlign=top;spacingLeft=4;spacingRight=4;overflow=hidden;rotatable=0;points=[];portConstraint=eastwest;part=1;" parent="FQAta1E75LvSdbTolyzg-3" vertex="1" connectable="0">
          <mxGeometry width="30" height="54.00000000000002" as="geometry" />
        </mxCell>
        <mxCell id="FQAta1E75LvSdbTolyzg-5" value="" style="edgeStyle=none;rounded=0;html=1;startArrow=ERzeroToMany;startFill=1;endArrow=ERzeroToOne;endFill=1;jettySize=auto;orthogonalLoop=1;fontSize=10;strokeColor=#000066;exitX=1;exitY=0.743;exitDx=0;exitDy=0;exitPerimeter=0;entryX=1.002;entryY=0.214;entryDx=0;entryDy=0;entryPerimeter=0;" parent="1" source="6swf2HXfbsQknAuUjtrE-94" target="6swf2HXfbsQknAuUjtrE-97" edge="1">
          <mxGeometry relative="1" as="geometry">
            <mxPoint x="250" y="280" as="sourcePoint" />
            <mxPoint x="247" y="510" as="targetPoint" />
            <Array as="points">
              <mxPoint x="270" y="277" />
              <mxPoint x="270" y="510" />
            </Array>
          </mxGeometry>
        </mxCell>
        <mxCell id="FQAta1E75LvSdbTolyzg-6" value="" style="edgeStyle=none;rounded=0;html=1;startArrow=ERzeroToMany;startFill=1;endArrow=ERzeroToOne;endFill=1;jettySize=auto;orthogonalLoop=1;fontSize=10;strokeColor=#000066;entryX=1.002;entryY=0.28;entryDx=0;entryDy=0;entryPerimeter=0;exitX=0.999;exitY=0.543;exitDx=0;exitDy=0;exitPerimeter=0;" parent="1" source="6swf2HXfbsQknAuUjtrE-94" target="FQAta1E75LvSdbTolyzg-3" edge="1">
          <mxGeometry relative="1" as="geometry">
            <mxPoint x="260" y="220" as="sourcePoint" />
            <mxPoint x="257" y="526" as="targetPoint" />
            <Array as="points">
              <mxPoint x="280" y="220" />
              <mxPoint x="280" y="721" />
            </Array>
          </mxGeometry>
        </mxCell>
        <mxCell id="q62Lzlm9oPpmw1yvVGI4-1" value="TableFieldEntity" style="swimlane;fontStyle=0;childLayout=stackLayout;horizontal=1;startSize=26;fillColor=#FFE6CC;horizontalStack=0;resizeParent=1;resizeParentMax=0;resizeLast=0;collapsible=1;marginBottom=0;swimlaneFillColor=#ffffff;align=center;strokeWidth=1;fontSize=13;strokeColor=#d79b00;" parent="1" vertex="1">
          <mxGeometry x="77" y="587" width="170" height="80" as="geometry" />
        </mxCell>
        <mxCell id="q62Lzlm9oPpmw1yvVGI4-2" value="upperCasedEntityName&#xa;-----------------------------------&#xa;lowerCasedEntityName" style="shape=partialRectangle;top=0;left=0;right=0;bottom=0;align=left;verticalAlign=top;fillColor=none;spacingLeft=34;spacingRight=4;overflow=hidden;rotatable=0;points=[[0,0.5],[1,0.5]];portConstraint=eastwest;dropTarget=0;" parent="q62Lzlm9oPpmw1yvVGI4-1" vertex="1">
          <mxGeometry y="26" width="170" height="54" as="geometry" />
        </mxCell>
        <mxCell id="q62Lzlm9oPpmw1yvVGI4-3" value="UN&#xa;-----&#xa;UN" style="shape=partialRectangle;top=0;left=0;bottom=0;fillColor=none;align=left;verticalAlign=top;spacingLeft=4;spacingRight=4;overflow=hidden;rotatable=0;points=[];portConstraint=eastwest;part=1;" parent="q62Lzlm9oPpmw1yvVGI4-2" vertex="1" connectable="0">
          <mxGeometry width="30" height="54.00000000000002" as="geometry" />
        </mxCell>
        <mxCell id="q62Lzlm9oPpmw1yvVGI4-4" value="" style="edgeStyle=none;rounded=0;html=1;startArrow=ERzeroToMany;startFill=1;endArrow=ERzeroToOne;endFill=1;jettySize=auto;orthogonalLoop=1;fontSize=10;strokeColor=#000066;entryX=0;entryY=0.242;entryDx=0;entryDy=0;entryPerimeter=0;exitX=0;exitY=0.5;exitDx=0;exitDy=0;" parent="1" source="6swf2HXfbsQknAuUjtrE-97" target="q62Lzlm9oPpmw1yvVGI4-2" edge="1">
          <mxGeometry relative="1" as="geometry">
            <mxPoint x="27" y="346" as="sourcePoint" />
            <mxPoint x="342" y="791" as="targetPoint" />
            <Array as="points">
              <mxPoint x="60" y="534" />
              <mxPoint x="60" y="626" />
            </Array>
          </mxGeometry>
        </mxCell>
        <mxCell id="Syb0QpxjKSJrtSAzrgvE-14" value="Currency" style="swimlane;fontStyle=0;childLayout=stackLayout;horizontal=1;startSize=26;fillColor=#FFE6CC;horizontalStack=0;resizeParent=1;resizeParentMax=0;resizeLast=0;collapsible=1;marginBottom=0;swimlaneFillColor=#ffffff;align=center;strokeWidth=1;fontSize=13;strokeColor=#d79b00;" vertex="1" parent="1">
          <mxGeometry x="580.5" y="680" width="130" height="80" as="geometry" />
        </mxCell>
        <mxCell id="Syb0QpxjKSJrtSAzrgvE-15" value="symbol&#xa;-----------------------&#xa;messageName" style="shape=partialRectangle;top=0;left=0;right=0;bottom=0;align=left;verticalAlign=top;fillColor=none;spacingLeft=34;spacingRight=4;overflow=hidden;rotatable=0;points=[[0,0.5],[1,0.5]];portConstraint=eastwest;dropTarget=0;" vertex="1" parent="Syb0QpxjKSJrtSAzrgvE-14">
          <mxGeometry y="26" width="130" height="54" as="geometry" />
        </mxCell>
        <mxCell id="Syb0QpxjKSJrtSAzrgvE-16" value="UN&#xa;-----&#xa;Â &#xa;&#xa;&#xa;&#xa;&#xa;" style="shape=partialRectangle;top=0;left=0;bottom=0;fillColor=none;align=left;verticalAlign=top;spacingLeft=4;spacingRight=4;overflow=hidden;rotatable=0;points=[];portConstraint=eastwest;part=1;" vertex="1" connectable="0" parent="Syb0QpxjKSJrtSAzrgvE-15">
          <mxGeometry width="30" height="54.00000000000002" as="geometry" />
        </mxCell>
        <mxCell id="Syb0QpxjKSJrtSAzrgvE-18" value="" style="edgeStyle=none;rounded=0;html=1;startArrow=ERzeroToMany;startFill=1;endArrow=ERzeroToOne;endFill=1;jettySize=auto;orthogonalLoop=1;fontSize=10;strokeColor=#000066;entryX=0.003;entryY=0.256;entryDx=0;entryDy=0;entryPerimeter=0;exitX=1.001;exitY=0.782;exitDx=0;exitDy=0;exitPerimeter=0;" edge="1" parent="1" source="6swf2HXfbsQknAuUjtrE-9" target="Syb0QpxjKSJrtSAzrgvE-15">
          <mxGeometry relative="1" as="geometry">
            <mxPoint x="490" y="338" as="sourcePoint" />
            <mxPoint x="576" y="667" as="targetPoint" />
            <Array as="points">
              <mxPoint x="540" y="344" />
              <mxPoint x="540" y="720" />
            </Array>
          </mxGeometry>
        </mxCell>
        <mxCell id="Syb0QpxjKSJrtSAzrgvE-19" value="" style="edgeStyle=none;rounded=0;html=1;startArrow=ERzeroToMany;startFill=1;endArrow=ERzeroToOne;endFill=1;jettySize=auto;orthogonalLoop=1;fontSize=10;strokeColor=#000066;entryX=1;entryY=0.261;entryDx=0;entryDy=0;entryPerimeter=0;exitX=0;exitY=0.601;exitDx=0;exitDy=0;exitPerimeter=0;" edge="1" parent="1" source="6swf2HXfbsQknAuUjtrE-50" target="Syb0QpxjKSJrtSAzrgvE-15">
          <mxGeometry relative="1" as="geometry">
            <mxPoint x="750" y="370" as="sourcePoint" />
            <mxPoint x="730" y="716" as="targetPoint" />
            <Array as="points">
              <mxPoint x="720" y="374" />
              <mxPoint x="720" y="720" />
            </Array>
          </mxGeometry>
        </mxCell>
      </root>
    </mxGraphModel>
  </diagram>
</mxfile>
